# xmcd
#
# Track frame offsets:
#	150
#	10630
#	26069
#	35901
#	48067
#	57352
#	69299
#	84391
#	92560
#	101775
#	110781
#	128934
#	144495
#	154329
#	170224
#	188086
#	201446
#	218641
#	225400
#
# Disc length: 3441 seconds
#
# Revision: 0
# Processed by: cddbd v1.4PL0 Copyright (c) Steve Scherf et al.
# Submitted via: EasyCDDAExtractor 4.6.9.1
#
DISCID=0a0d6f13
DTITLE=The Byrds - The Notorious Byrd Brothers (rem)
DYEAR=1900
DGENRE=
TTITLE0=Artificial Energy
TTITLE1=Goin' Back
TTITLE2=Natural Harmony
TTITLE3=Draft Morning
TTITLE4=Wasn't Born To Follow
TTITLE5=Get To You
TTITLE6=Change Is Now
TTITLE7=Old John Robertson
TTITLE8=Tribal Gathering
TTITLE9=Dolphin's Smile
TTITLE10=Space Odyssey
TTITLE11=Moog Raga (Instrumental) (Bonus Track)
TTITLE12=Bound To Fall (Instrumental) (Bonus Track)
TTITLE13=Triad (Bonus Track )
TTITLE14=Goin' Back (Version One) (Bonus Track)
TTITLE15=Draft Morning (Alternate End) (Bonus Track)
TTITLE16=Universal Mind Decoder (Instrumental) (Bonus Track 
TTITLE17=Gary Usher
TTITLE18=Studio Rehersal
EXTD=
EXTT0=
EXTT1=
EXTT2=
EXTT3=
EXTT4=
EXTT5=
EXTT6=
EXTT7=
EXTT8=
EXTT9=
EXTT10=
EXTT11=
EXTT12=
EXTT13=
EXTT14=
EXTT15=
EXTT16=
EXTT17=
EXTT18=
PLAYORDER=
